<?xml version="1.0" encoding="UTF-8"?>
<svg version="1.1" xmlns="http://www.w3.org/2000/svg" width="1024" height="1024">
<path d="M0 0 C3.98145596 1.76244954 7.68955068 3.91563059 11.4375 6.125 C12.53497559 6.75591553 13.63245117 7.38683105 14.76318359 8.03686523 C18.18473269 10.00906591 21.59329544 12.00228677 25 14 C27.05565627 15.19718709 29.11163398 16.39382245 31.16796875 17.58984375 C34.14807755 19.32548479 37.12669514 21.06349412 40.1015625 22.80810547 C47.00901909 26.85749978 53.958769 30.82486194 60.9375 34.75 C69.5813457 39.61420082 78.1529424 44.58412567 86.68847656 49.63525391 C100.65111159 57.87893048 114.69171695 65.98542731 128.77893066 74.01382446 C138.06012692 79.30436139 147.31450127 84.63890338 156.52392578 90.05371094 C161.10820439 92.74688761 165.70316197 95.40474501 170.36328125 97.96484375 C185.08039228 106.09239259 196.68514636 115.04439605 201.55996704 131.94088745 C203.47159586 140.3107186 203.32815282 148.72453456 203.3359375 157.2578125 C203.34238148 158.93155017 203.34911097 160.60528677 203.35610962 162.27902222 C203.36803194 165.77718714 203.37179584 169.27525372 203.37060547 172.7734375 C203.37040296 177.21101069 203.39765762 181.64793864 203.43214989 186.08535957 C203.45461745 189.54137955 203.45843695 192.99724935 203.45738602 196.45333481 C203.45971408 198.08687428 203.46837562 199.72041973 203.48405075 201.35388565 C203.64139697 219.44823091 200.65807752 235.98180458 187.875 249.75 C183.07325646 254.23910915 177.75882827 257.53566392 172.07617188 260.80126953 C169.72201562 262.16050133 167.38406241 263.54538961 165.046875 264.93359375 C160.32820989 267.73508714 155.60176719 270.52313692 150.87304688 273.30761719 C146.35038419 275.97171455 141.83139513 278.64201868 137.3125 281.3125 C136.41354004 281.84351318 135.51458008 282.37452637 134.58837891 282.92163086 C129.60039423 285.86883773 124.6151222 288.82055248 119.6328125 291.77734375 C107.06421137 299.23547196 94.47779458 306.6610235 81.86334229 314.0413208 C75.32484428 317.86724511 68.79269276 321.70089914 62.3125 325.625 C56.04696761 329.39468792 49.75114097 333.11225326 43.43319702 336.793396 C41.73904549 337.78240874 40.04877826 338.77806586 38.35864258 339.77392578 C20.81707962 349.95832037 2.89578297 354.32778424 -17.375 350 C-31.85517304 345.51608278 -44.99693931 336.60618041 -57.88574219 328.86523438 C-61.21168705 326.87321346 -64.54574157 324.89517148 -67.8828125 322.921875 C-68.46386749 322.57824921 -69.04492249 322.23462341 -69.64358521 321.88058472 C-70.82005026 321.18490591 -71.99653342 320.48925773 -73.17303467 319.79364014 C-80.6929371 315.34579304 -88.20695672 310.88878614 -95.6875 306.375 C-102.9757936 301.98868143 -110.32847201 297.71468244 -117.67993164 293.43530273 C-125.41796217 288.9289491 -133.13825328 284.39368828 -140.84106445 279.82739258 C-145.42877964 277.10778346 -150.02277263 274.40037595 -154.6328125 271.71875 C-163.5091161 266.54468508 -172.32665576 261.29495786 -180.9375 255.6875 C-181.65260742 255.23238037 -182.36771484 254.77726074 -183.10449219 254.30834961 C-190.76266491 249.22572592 -196.19738003 242.67954031 -200.3125 234.5 C-200.64572266 233.90703125 -200.97894531 233.3140625 -201.32226562 232.703125 C-207.10885049 221.33785652 -206.35182392 206.65277856 -206.31567383 194.16894531 C-206.31245344 191.84134485 -206.33631484 189.51495015 -206.36132812 187.1875 C-206.36359653 185.6848974 -206.36430676 184.18229146 -206.36328125 182.6796875 C-206.372491 181.99526581 -206.38170074 181.31084412 -206.39118958 180.60568237 C-206.33946771 175.219668 -205.00749666 171.15620012 -201.3125 167.1875 C-197.80952634 165.38867569 -194.89227041 164.59735134 -191 165 C-183.71260106 167.64315351 -177.12814921 172.04438802 -170.52832031 176.06152344 C-164.30473389 179.84832934 -158.00143134 183.49126047 -151.6875 187.125 C-150.57141357 187.76767822 -149.45532715 188.41035645 -148.30541992 189.07250977 C-144.8708202 191.04928067 -141.43549561 193.02478657 -138 195 C-121.38273355 204.55692548 -104.81490932 214.19333654 -88.28442383 223.8992157 C-79.38157501 229.12555327 -70.46737859 234.33240172 -61.54248047 239.52099609 C-59.91044368 240.47037951 -58.27918896 241.42110934 -56.64892578 242.37353516 C-54.64333131 243.54485273 -52.63479149 244.71090362 -50.625 245.875 C-49.56539062 246.49117187 -48.50578125 247.10734375 -47.4140625 247.7421875 C-45.15806863 249.15402517 -45.15806863 249.15402517 -43 249 C-42.578396 249.42563232 -42.15679199 249.85126465 -41.72241211 250.28979492 C-39.51748529 252.47909504 -37.13374417 253.81209262 -34.44140625 255.36328125 C-33.33216797 256.00330078 -32.22292969 256.64332031 -31.08007812 257.30273438 C-30.21104858 257.79906372 -30.21104858 257.79906372 -29.32446289 258.30541992 C-27.59626305 259.29320215 -25.87326649 260.29007017 -24.15039062 261.28710938 C-5.59146973 272.51424799 -5.59146973 272.51424799 15.44921875 273.5390625 C26.35600646 270.55330741 35.9772376 264.51588527 45.5546875 258.68359375 C50.9532457 255.40562929 56.41585286 252.23814925 61.875 249.0625 C63.95447463 247.85164414 66.03390227 246.6407076 68.11328125 245.4296875 C69.11439941 244.84670898 70.11551758 244.26373047 71.14697266 243.66308594 C77.12616301 240.17769789 83.09463381 236.67433336 89.05175781 233.15136719 C90.37058984 232.3719672 91.69027752 231.59401356 93.01074219 230.81738281 C112.0553443 220.61947458 112.0553443 220.61947458 123 203 C123.27217104 200.21067474 123.42268005 197.65761337 123.3984375 194.87890625 C123.40130768 194.13470932 123.40417786 193.39051239 123.40713501 192.62376404 C123.40916164 191.06158683 123.40373065 189.49938343 123.39111328 187.93725586 C123.37506116 185.57151401 123.39099689 183.20748604 123.41015625 180.84179688 C123.4251421 170.86844924 122.79319461 162.42442944 117 154 C114.71850648 152.14368997 114.71850648 152.14368997 112.046875 150.6015625 C111.06525391 150.00504883 110.08363281 149.40853516 109.07226562 148.79394531 C104.16340943 145.92758523 99.22528067 143.1244242 94.25 140.375 C92.03495106 139.14229572 89.82011179 137.90921461 87.60546875 136.67578125 C86.49864746 136.06041504 85.39182617 135.44504883 84.25146484 134.81103516 C69.98950632 126.86725919 55.82240639 118.76055964 41.69165039 110.58618164 C34.65024726 106.51685028 27.58631872 102.49054503 20.5 98.5 C9.06336043 92.05718497 -2.30465444 85.49838618 -13.66650391 78.92480469 C-17.03857905 76.97772395 -20.41509578 75.03856532 -23.79296875 73.1015625 C-29.21570462 69.99108905 -34.62792752 66.86309529 -40.03222656 63.72070312 C-41.95789998 62.60420541 -43.8867658 61.49318892 -45.81933594 60.38867188 C-48.3477564 58.9420126 -50.86266287 57.47436162 -53.375 56 C-54.10009766 55.59168945 -54.82519531 55.18337891 -55.57226562 54.76269531 C-60.42785411 51.86865155 -62.67755271 49.185413 -65 44 C-65.08738767 39.0189029 -63.86232447 36.28755493 -60.62182617 32.55493164 C-57.52575987 29.58656701 -53.83446511 27.60863372 -50.125 25.5 C-48.3391893 24.45815221 -46.55406122 23.41513372 -44.76953125 22.37109375 C-43.83318848 21.82694824 -42.8968457 21.28280273 -41.93212891 20.72216797 C-35.88735306 17.17180587 -29.92966665 13.47616649 -23.95556641 9.80859375 C-21.31137058 8.1926702 -18.65625528 6.59599173 -16 5 C-15.19868652 4.49839355 -14.39737305 3.99678711 -13.57177734 3.47998047 C-8.88362871 0.65876737 -5.59249749 -1.06466797 0 0 Z " fill="#FCFCFC" transform="translate(514,367)"/>
<path d="M0 0 C1.44615869 0.84843381 2.89272797 1.69616842 4.33984375 2.54296875 C7.02732691 4.11850289 9.70991174 5.70204247 12.390625 7.2890625 C18.08943178 10.6528354 23.82770505 13.9480975 29.5625 17.25 C41.07794908 23.88263808 52.56358937 30.56482617 64.03662109 37.27050781 C67.0078298 39.00456964 69.98197532 40.73348567 72.95703125 42.4609375 C85.47543413 49.7346335 97.92785291 57.10993934 110.32421875 64.58984375 C113.70766228 66.63000133 117.09979753 68.65020708 120.51953125 70.62890625 C136.06659344 79.64837247 147.83800747 89.6360319 154 107 C156.00714958 115.89438252 156.34513068 124.86706187 156.31567383 133.95068359 C156.31245938 136.02622568 156.33627968 138.1004085 156.36132812 140.17578125 C156.36359697 141.51301907 156.36430655 142.85026065 156.36328125 144.1875 C156.36775269 145.97220703 156.36775269 145.97220703 156.37231445 147.79296875 C155.85110714 152.28252889 154.15185179 154.84814821 151 158 C147.90549227 159.06203611 146.40552381 159.14548992 143.29980469 158.03125 C142.35008789 157.5259375 141.40037109 157.020625 140.421875 156.5 C139.36677734 155.94054687 138.31167969 155.38109375 137.22460938 154.8046875 C132.16671295 151.97398108 127.19447915 149.02386339 122.25 146 C120.04629207 144.66547839 117.84184648 143.33217426 115.63671875 142 C114.52989746 141.33097656 113.42307617 140.66195312 112.28271484 139.97265625 C107.23420336 136.93889359 102.15260393 133.96331249 97.0625 131 C96.08539062 130.43104004 95.10828125 129.86208008 94.1015625 129.27587891 C87.77191537 125.59703008 81.42840816 121.94255159 75.08227539 118.29223633 C66.22433147 113.19578724 57.38321331 108.07891074 48.625 102.8125 C47.83448242 102.3376416 47.04396484 101.8627832 46.22949219 101.37353516 C41.95909454 98.80165091 37.70501494 96.20493355 33.4609375 93.58984375 C32.54747559 93.03127686 31.63401367 92.47270996 30.69287109 91.8972168 C28.9385963 90.82413502 27.18866763 89.74390528 25.44384766 88.65551758 C24.65800293 88.17622803 23.8721582 87.69693848 23.0625 87.203125 C22.37285156 86.77676758 21.68320312 86.35041016 20.97265625 85.91113281 C18.75692427 84.72045689 18.75692427 84.72045689 15 85 C15 84.01 15 83.02 15 82 C14.29149902 81.73517822 13.58299805 81.47035645 12.85302734 81.19750977 C9.86262416 79.94233882 7.15728867 78.46557634 4.3515625 76.83984375 C3.27068359 76.21513184 2.18980469 75.59041992 1.07617188 74.94677734 C-0.06271484 74.28371582 -1.20160156 73.6206543 -2.375 72.9375 C-3.55392363 72.25452525 -4.73296063 71.57174616 -5.91210938 70.88916016 C-12.14377226 67.27594622 -18.34392121 63.61547535 -24.5 59.875 C-33.67069287 54.31249033 -41.20068881 49.90091718 -52.0625 49.6875 C-53.29097656 49.65011719 -54.51945313 49.61273438 -55.78515625 49.57421875 C-66.68445192 50.1759315 -76.16055031 56.71156738 -85.25 62.1875 C-86.4695481 62.91295727 -87.68959902 63.63756997 -88.91015625 64.36132812 C-92.61429254 66.56175379 -96.30789475 68.77946372 -100 71 C-102.47759272 72.48873415 -104.95550439 73.97693645 -107.43359375 75.46484375 C-108.05201645 75.83623978 -108.67043915 76.2076358 -109.30760193 76.59028625 C-115.12085365 80.07850091 -120.95236407 83.53557853 -126.78588867 86.98974609 C-132.92654594 90.62588016 -139.05942364 94.27509178 -145.1920166 97.92480469 C-146.83913059 98.90433207 -148.4873757 99.88195681 -150.13574219 100.859375 C-152.65763906 102.35700199 -155.17373578 103.86377617 -157.6875 105.375 C-158.72644409 105.98867432 -158.72644409 105.98867432 -159.78637695 106.61474609 C-166.90399582 110.92619717 -172.49394348 116.34783965 -175.09765625 124.390625 C-176.4642143 130.18109149 -176.29041539 136.02001274 -176.25 141.9375 C-176.25773437 143.06607422 -176.26546875 144.19464844 -176.2734375 145.35742188 C-176.25247116 154.36770741 -176.03587421 162.85225422 -170 170 C-164.39943186 174.76073588 -158.14849132 178.37199507 -151.75 181.9375 C-149.89295733 182.98389272 -148.03618502 184.03076539 -146.1796875 185.078125 C-144.84695801 185.82739258 -144.84695801 185.82739258 -143.48730469 186.59179688 C-139.35020122 188.93404391 -135.264079 191.36009207 -131.1796875 193.79296875 C-128.93288142 195.12400694 -128.93288142 195.12400694 -126 196 C-124.65792603 196.98823846 -123.32574384 197.98995988 -122 199 C-120.26980965 200.0517483 -118.52327388 201.07684293 -116.765625 202.08203125 C-115.72937988 202.67685303 -114.69313477 203.2716748 -113.62548828 203.88452148 C-112.51157715 204.52075439 -111.39766602 205.1569873 -110.25 205.8125 C-107.8768958 207.1732462 -105.50487643 208.53587891 -103.1328125 209.8984375 C-102.53157562 210.24347824 -101.93033875 210.58851898 -101.31088257 210.9440155 C-95.56411345 214.24423868 -89.84351462 217.58859427 -84.125 220.9375 C-75.48745183 225.98884014 -66.81679906 230.98024612 -58.125 235.9375 C-40.3291542 246.08747182 -22.5809213 256.31885358 -4.875 266.625 C-3.89756836 267.19299316 -2.92013672 267.76098633 -1.91308594 268.34619141 C0.73049883 269.88774389 3.36734384 271.43986912 6 273 C6.78600586 273.46245117 7.57201172 273.92490234 8.38183594 274.40136719 C9.09887695 274.83352539 9.81591797 275.26568359 10.5546875 275.7109375 C11.17585449 276.0826709 11.79702148 276.4544043 12.43701172 276.83740234 C14.77906723 278.57949362 15.87228196 280.40119082 16.4765625 283.234375 C16.86771789 289.86342949 16.86771789 289.86342949 14.65258789 292.76489258 C8.494897 297.93239393 1.76738184 301.94029751 -5.1875 305.9375 C-7.49512673 307.27715051 -9.8001285 308.62125653 -12.10546875 309.96484375 C-13.24290527 310.62339355 -14.3803418 311.28194336 -15.55224609 311.96044922 C-17.90235107 313.33531276 -20.2163573 314.75477945 -22.51416016 316.21533203 C-23.08701248 316.57760391 -23.65986481 316.93987579 -24.25007629 317.31312561 C-25.82409152 318.31422962 -27.39141738 319.3258292 -28.95825195 320.33813477 C-35.31153761 323.80926531 -41.08267111 325.00104815 -48 323 C-53.20208318 320.68722672 -58.08470235 317.85742637 -63 315 C-63.8976709 314.48147461 -64.7953418 313.96294922 -65.72021484 313.42871094 C-71.85880716 309.87895406 -77.97772227 306.29636605 -84.09179688 302.70458984 C-88.2180747 300.28604789 -92.35803009 297.89153431 -96.5 295.5 C-103.57190295 291.41189814 -110.63233994 287.30442673 -117.6875 283.1875 C-118.69828613 282.59767334 -119.70907227 282.00784668 -120.75048828 281.40014648 C-125.81756974 278.44267627 -130.88374479 275.48366003 -135.94921875 272.5234375 C-146.17821276 266.54808456 -156.42087922 260.59799591 -166.6875 254.6875 C-177.29446044 248.57854923 -187.87464894 242.42510741 -198.421875 236.21362305 C-199.62629393 235.50438068 -200.83072093 234.79515203 -202.03515625 234.0859375 C-202.62305939 233.73966812 -203.21096252 233.39339874 -203.81668091 233.03663635 C-207.65286099 230.78099017 -211.50675051 228.55854667 -215.37109375 226.3515625 C-244.44445084 209.66664747 -244.44445084 209.66664747 -249 196 C-249.31227539 195.13745605 -249.62455078 194.27491211 -249.94628906 193.38623047 C-252.84767418 184.8556283 -253.65168527 177.09819629 -253.75 168.125 C-253.77718373 166.76161084 -253.80568639 165.3982474 -253.83544922 164.03491211 C-253.91639714 160.02336427 -253.96033095 156.01216813 -254 152 C-254.01514648 150.8744873 -254.03029297 149.74897461 -254.04589844 148.58935547 C-254.12877852 142.05698975 -254.12194359 135.53176545 -254 129 C-253.98114746 127.8545874 -253.98114746 127.8545874 -253.96191406 126.68603516 C-253.760348 117.42839375 -252.73498809 108.58342547 -249 100 C-248.01 99.505 -248.01 99.505 -247 99 C-246.7525 98.319375 -246.505 97.63875 -246.25 96.9375 C-238.76862062 79.35625845 -217.15676386 70.42822223 -201.6484375 61.32421875 C-196.41222965 58.24908475 -191.20211757 55.13236867 -186 52 C-179.12341 47.8627651 -172.22611725 43.76254436 -165.3125 39.6875 C-157.56217374 35.11812498 -149.83553743 30.511188 -142.125 25.875 C-130.91700477 19.13599867 -119.67684831 12.45226401 -108.42626953 5.78466797 C-107.789095 5.40689713 -107.15192047 5.02912628 -106.49543762 4.63990784 C-105.22875086 3.88892062 -103.96189661 3.13821582 -102.69487 2.38780212 C-99.43714357 0.455958 -96.18737388 -1.48795954 -92.94799805 -3.45043945 C-91.94870773 -4.05464218 -91.94870773 -4.05464218 -90.92922974 -4.67105103 C-89.6715668 -5.43238112 -88.41524395 -6.19593175 -87.16061401 -6.96224976 C-55.44065523 -26.15200536 -29.85915484 -17.68493692 0 0 Z " fill="#FCFCFC" transform="translate(561,269)"/>
<path d="M0 0 C2 1 2 1 2 1 Z " fill="#FFFFFF" transform="translate(416,673)"/>
<path d="M0 0 C2 1 2 1 2 1 Z " fill="#FFFFFF" transform="translate(520,640)"/>
<path d="M0 0 C2 1 2 1 2 1 Z " fill="#FFFFFF" transform="translate(432,547)"/>
<path d="" fill="#FFFFFF" transform="translate(0,0)"/>
<path d="" fill="#FFFFFF" transform="translate(0,0)"/>
<path d="M0 0 C2 1 2 1 2 1 Z " fill="#FFFFFF" transform="translate(684,464)"/>
<path d="M0 0 C2 1 2 1 2 1 Z " fill="#FFFFFF" transform="translate(537,331)"/>
<path d="" fill="#FFFFFF" transform="translate(0,0)"/>
<path d="" fill="#FFFFFF" transform="translate(0,0)"/>
<path d="" fill="#FFFFFF" transform="translate(0,0)"/>
<path d="" fill="#FFFFFF" transform="translate(0,0)"/>
<path d="" fill="#FFFFFF" transform="translate(0,0)"/>
<path d="" fill="#FFFFFF" transform="translate(0,0)"/>
<path d="" fill="#FFFFFF" transform="translate(0,0)"/>
<path d="" fill="#FFFFFF" transform="translate(0,0)"/>
<path d="" fill="#FFFFFF" transform="translate(0,0)"/>
<path d="" fill="#FFFFFF" transform="translate(0,0)"/>
<path d="" fill="#FFFFFF" transform="translate(0,0)"/>
<path d="" fill="#FFFFFF" transform="translate(0,0)"/>
<path d="" fill="#FFFFFF" transform="translate(0,0)"/>
<path d="" fill="#FFFFFF" transform="translate(0,0)"/>
<path d="" fill="#FFFFFF" transform="translate(0,0)"/>
<path d="" fill="#FFFFFF" transform="translate(0,0)"/>
<path d="" fill="#FFFFFF" transform="translate(0,0)"/>
<path d="" fill="#FFFFFF" transform="translate(0,0)"/>
<path d="" fill="#FFFFFF" transform="translate(0,0)"/>
<path d="" fill="#FFFFFF" transform="translate(0,0)"/>
<path d="" fill="#FFFFFF" transform="translate(0,0)"/>
<path d="" fill="#FFFFFF" transform="translate(0,0)"/>
<path d="" fill="#FFFFFF" transform="translate(0,0)"/>
<path d="" fill="#FFFFFF" transform="translate(0,0)"/>
<path d="" fill="#FFFFFF" transform="translate(0,0)"/>
<path d="" fill="#FFFFFF" transform="translate(0,0)"/>
<path d="" fill="#FFFFFF" transform="translate(0,0)"/>
<path d="" fill="#FFFFFF" transform="translate(0,0)"/>
<path d="" fill="#FFFFFF" transform="translate(0,0)"/>
<path d="" fill="#FFFFFF" transform="translate(0,0)"/>
<path d="" fill="#FFFFFF" transform="translate(0,0)"/>
<path d="" fill="#FFFFFF" transform="translate(0,0)"/>
<path d="" fill="#FFFFFF" transform="translate(0,0)"/>
<path d="" fill="#FFFFFF" transform="translate(0,0)"/>
<path d="" fill="#FFFFFF" transform="translate(0,0)"/>
<path d="" fill="#FFFFFF" transform="translate(0,0)"/>
<path d="" fill="#FFFFFF" transform="translate(0,0)"/>
<path d="" fill="#FFFFFF" transform="translate(0,0)"/>
<path d="" fill="#FFFFFF" transform="translate(0,0)"/>
<path d="" fill="#FFFFFF" transform="translate(0,0)"/>
<path d="" fill="#FFFFFF" transform="translate(0,0)"/>
<path d="" fill="#FFFFFF" transform="translate(0,0)"/>
<path d="" fill="#FFFFFF" transform="translate(0,0)"/>
<path d="" fill="#FFFFFF" transform="translate(0,0)"/>
<path d="" fill="#FFFFFF" transform="translate(0,0)"/>
<path d="" fill="#FFFFFF" transform="translate(0,0)"/>
<path d="" fill="#FFFFFF" transform="translate(0,0)"/>
<path d="" fill="#FFFFFF" transform="translate(0,0)"/>
<path d="" fill="#FFFFFF" transform="translate(0,0)"/>
<path d="" fill="#FFFFFF" transform="translate(0,0)"/>
<path d="" fill="#FFFFFF" transform="translate(0,0)"/>
<path d="" fill="#FFFFFF" transform="translate(0,0)"/>
<path d="" fill="#FFFFFF" transform="translate(0,0)"/>
<path d="" fill="#FFFFFF" transform="translate(0,0)"/>
<path d="" fill="#FFFFFF" transform="translate(0,0)"/>
<path d="" fill="#FFFFFF" transform="translate(0,0)"/>
<path d="" fill="#FFFFFF" transform="translate(0,0)"/>
<path d="" fill="#FFFFFF" transform="translate(0,0)"/>
<path d="" fill="#FFFFFF" transform="translate(0,0)"/>
<path d="" fill="#FFFFFF" transform="translate(0,0)"/>
<path d="" fill="#FFFFFF" transform="translate(0,0)"/>
<path d="" fill="#FFFFFF" transform="translate(0,0)"/>
<path d="" fill="#FFFFFF" transform="translate(0,0)"/>
<path d="" fill="#FFFFFF" transform="translate(0,0)"/>
<path d="" fill="#FFFFFF" transform="translate(0,0)"/>
<path d="" fill="#FFFFFF" transform="translate(0,0)"/>
<path d="" fill="#FFFFFF" transform="translate(0,0)"/>
<path d="" fill="#FFFFFF" transform="translate(0,0)"/>
<path d="" fill="#FFFFFF" transform="translate(0,0)"/>
<path d="" fill="#FFFFFF" transform="translate(0,0)"/>
<path d="" fill="#FFFFFF" transform="translate(0,0)"/>
<path d="" fill="#FFFFFF" transform="translate(0,0)"/>
<path d="" fill="#FFFFFF" transform="translate(0,0)"/>
<path d="" fill="#FFFFFF" transform="translate(0,0)"/>
<path d="" fill="#FFFFFF" transform="translate(0,0)"/>
<path d="" fill="#FFFFFF" transform="translate(0,0)"/>
<path d="" fill="#FFFFFF" transform="translate(0,0)"/>
<path d="" fill="#FFFFFF" transform="translate(0,0)"/>
<path d="" fill="#FFFFFF" transform="translate(0,0)"/>
<path d="" fill="#FFFFFF" transform="translate(0,0)"/>
<path d="" fill="#FFFFFF" transform="translate(0,0)"/>
<path d="" fill="#FFFFFF" transform="translate(0,0)"/>
<path d="" fill="#FFFFFF" transform="translate(0,0)"/>
<path d="" fill="#FFFFFF" transform="translate(0,0)"/>
<path d="" fill="#FFFFFF" transform="translate(0,0)"/>
<path d="" fill="#FFFFFF" transform="translate(0,0)"/>
<path d="" fill="#FFFFFF" transform="translate(0,0)"/>
<path d="" fill="#FFFFFF" transform="translate(0,0)"/>
<path d="" fill="#FFFFFF" transform="translate(0,0)"/>
<path d="" fill="#FFFFFF" transform="translate(0,0)"/>
<path d="" fill="#FFFFFF" transform="translate(0,0)"/>
<path d="" fill="#FFFFFF" transform="translate(0,0)"/>
<path d="" fill="#FFFFFF" transform="translate(0,0)"/>
<path d="" fill="#FFFFFF" transform="translate(0,0)"/>
<path d="" fill="#FFFFFF" transform="translate(0,0)"/>
<path d="" fill="#FFFFFF" transform="translate(0,0)"/>
<path d="" fill="#FFFFFF" transform="translate(0,0)"/>
<path d="" fill="#FFFFFF" transform="translate(0,0)"/>
<path d="" fill="#FFFFFF" transform="translate(0,0)"/>
<path d="" fill="#FFFFFF" transform="translate(0,0)"/>
<path d="" fill="#FFFFFF" transform="translate(0,0)"/>
</svg>
