<svg width="1000" height="1000" viewBox="0 0 1000 1000" fill="none" xmlns="http://www.w3.org/2000/svg">
<path d="M513.597 261.439C521.621 264.879 529.093 269.082 536.646 273.394C538.858 274.626 541.069 275.857 543.348 277.126C550.243 280.975 557.112 284.866 563.978 288.765C568.12 291.101 572.263 293.437 576.407 295.771C582.413 299.159 588.416 302.551 594.411 305.956C608.331 313.86 622.336 321.604 636.399 329.265C653.819 338.759 671.092 348.459 688.293 358.318C716.431 374.408 744.726 390.231 773.115 405.901C791.818 416.227 810.468 426.639 829.027 437.207C838.265 442.464 847.525 447.652 856.916 452.648C886.575 468.512 909.961 485.985 919.785 518.963C923.637 535.3 923.348 551.722 923.363 568.377C923.376 571.644 923.39 574.911 923.404 578.178C923.428 585.005 923.436 591.833 923.433 598.661C923.433 607.322 923.488 615.982 923.557 624.643C923.603 631.389 923.61 638.134 923.608 644.88C923.613 648.068 923.63 651.256 923.662 654.445C923.979 689.761 917.967 722.032 892.206 748.905C882.53 757.667 871.82 764.101 860.368 770.475C855.624 773.128 850.913 775.831 846.203 778.54C836.693 784.008 827.169 789.45 817.639 794.885C808.525 800.085 799.418 805.297 790.312 810.509C788.5 811.545 786.689 812.582 784.822 813.65C774.77 819.402 764.724 825.163 754.683 830.934C729.355 845.491 703.99 859.984 678.57 874.389C665.393 881.857 652.229 889.339 639.17 896.999C626.544 904.356 613.857 911.612 601.124 918.797C597.71 920.728 594.304 922.671 590.898 924.615C555.548 944.493 519.433 953.021 478.583 944.574C449.402 935.822 422.918 918.432 396.945 903.323C390.242 899.435 383.523 895.574 376.798 891.723C375.627 891.052 374.456 890.381 373.25 889.69C370.879 888.332 368.508 886.975 366.137 885.617C350.983 876.935 335.841 868.236 320.766 859.426C306.078 850.865 291.261 842.523 276.446 834.17C260.852 825.375 245.294 816.523 229.772 807.61C220.526 802.302 211.268 797.018 201.978 791.784C184.09 781.685 166.321 771.438 148.968 760.494C147.527 759.605 146.086 758.717 144.601 757.802C129.169 747.881 118.216 735.105 109.924 719.14C109.252 717.982 108.581 716.825 107.889 715.632C96.2275 693.45 97.753 664.787 97.8259 640.421C97.8324 635.878 97.7843 631.337 97.7339 626.794C97.7293 623.862 97.7279 620.929 97.7299 617.996C97.7114 616.66 97.6928 615.324 97.6737 613.948C97.7779 603.435 100.462 595.504 107.908 587.758C114.968 584.247 120.847 582.703 128.69 583.489C143.376 588.647 156.645 597.238 169.945 605.079C182.487 612.47 195.19 619.58 207.914 626.672C210.163 627.927 212.412 629.181 214.729 630.474C221.651 634.332 228.574 638.188 235.497 642.043C268.984 660.696 302.372 679.505 335.685 698.449C353.626 708.65 371.59 718.812 389.576 728.94C392.864 730.793 396.152 732.648 399.437 734.507C403.479 736.793 407.526 739.069 411.577 741.341C413.712 742.544 415.847 743.747 418.047 744.986C422.594 747.741 422.594 747.741 426.943 747.441C427.792 748.272 428.642 749.102 429.517 749.958C433.961 754.231 438.764 756.833 444.19 759.861C446.425 761.11 448.661 762.359 450.964 763.646C452.715 764.615 452.715 764.615 454.502 765.603C457.985 767.531 461.457 769.477 464.929 771.423C502.329 793.336 502.329 793.336 544.731 795.337C566.71 789.509 586.099 777.725 605.4 766.341C616.279 759.943 627.287 753.761 638.289 747.563C642.479 745.199 646.67 742.836 650.86 740.472C652.878 739.334 654.895 738.197 656.974 737.024C669.023 730.221 681.051 723.383 693.056 716.507C695.714 714.986 698.373 713.468 701.034 711.952C739.413 692.047 739.413 692.047 761.469 657.657C762.017 652.213 762.321 647.23 762.272 641.807C762.278 640.354 762.284 638.902 762.289 637.405C762.294 634.356 762.283 631.307 762.257 628.258C762.225 623.64 762.257 619.026 762.296 614.409C762.326 594.943 761.052 578.462 749.378 562.019C744.78 558.395 744.78 558.395 739.396 555.385C737.418 554.221 735.44 553.057 733.402 551.857C723.509 546.263 713.558 540.791 703.531 535.425C699.068 533.019 694.604 530.612 690.141 528.205C687.911 527.004 685.68 525.803 683.382 524.565C654.641 509.061 626.091 493.238 597.615 477.283C583.425 469.34 569.19 461.482 554.909 453.693C531.862 441.118 508.953 428.316 486.056 415.486C479.261 411.685 472.456 407.901 465.649 404.12C454.721 398.049 443.814 391.944 432.923 385.81C429.043 383.631 425.156 381.463 421.261 379.307C416.166 376.483 411.098 373.619 406.035 370.741C404.574 369.944 403.112 369.147 401.607 368.326C391.822 362.677 387.288 357.44 382.608 347.319C382.432 337.597 384.901 332.266 391.431 324.98C397.67 319.187 405.109 315.326 412.584 311.211C416.183 309.177 419.78 307.141 423.377 305.104C425.264 304.041 427.151 302.979 429.095 301.885C441.276 294.955 453.282 287.742 465.321 280.584C470.65 277.43 476.001 274.313 481.354 271.198C482.968 270.219 484.583 269.24 486.247 268.232C495.695 262.725 502.327 259.361 513.597 261.439Z" fill="#FCFCFC"/>
<path d="M608.623 69.6804C611.537 71.3333 614.451 72.9848 617.367 74.6345C622.781 77.7038 628.186 80.7888 633.587 83.8805C645.069 90.4336 656.63 96.8532 668.184 103.286C691.385 116.207 714.525 129.225 737.641 142.288C743.627 145.667 749.619 149.035 755.613 152.4C780.834 166.57 805.923 180.938 830.898 195.51C837.715 199.485 844.55 203.42 851.439 207.275C882.763 224.846 906.479 244.303 918.894 278.131C922.938 295.458 923.619 312.938 923.56 330.634C923.553 334.678 923.601 338.719 923.652 342.762C923.656 345.367 923.658 347.972 923.656 350.577C923.665 354.054 923.665 354.054 923.674 357.601C922.624 366.347 919.2 371.345 912.85 377.486C906.615 379.555 903.593 379.717 897.336 377.546C895.422 376.562 893.509 375.578 891.538 374.563C889.412 373.474 887.286 372.384 885.096 371.261C874.906 365.746 864.888 359.999 854.926 354.108C850.486 351.508 846.045 348.911 841.602 346.315C839.372 345.012 837.142 343.709 834.844 342.366C824.673 336.456 814.435 330.659 804.179 324.886C802.211 323.778 800.242 322.669 798.214 321.527C785.461 314.36 772.681 307.241 759.895 300.13C742.048 290.201 724.236 280.233 706.59 269.973C704.997 269.048 703.405 268.123 701.764 267.17C693.16 262.159 684.589 257.101 676.038 252.006C674.198 250.918 672.358 249.83 670.461 248.709C666.927 246.618 663.401 244.514 659.886 242.393C658.303 241.46 656.719 240.526 655.088 239.564C653.699 238.733 652.309 237.903 650.878 237.047C646.414 234.727 646.414 234.727 638.844 235.272C638.844 233.343 638.844 231.415 638.844 229.427C637.417 228.912 635.989 228.396 634.519 227.864C628.494 225.419 623.043 222.542 617.39 219.375C615.213 218.158 613.035 216.941 610.791 215.687C608.497 214.395 606.202 213.103 603.838 211.772C601.463 210.442 599.087 209.112 596.712 207.782C584.156 200.743 571.665 193.612 559.262 186.325C540.785 175.488 525.614 166.894 503.73 166.478C501.255 166.405 498.78 166.333 496.23 166.258C474.271 167.43 455.179 180.162 436.866 190.83C434.409 192.243 431.951 193.655 429.492 195.065C422.029 199.352 414.587 203.672 407.148 207.998C402.157 210.898 397.164 213.797 392.172 216.696C390.926 217.42 389.68 218.143 388.396 218.889C376.684 225.684 364.935 232.419 353.182 239.148C340.81 246.232 328.453 253.341 316.098 260.451C312.779 262.359 309.459 264.264 306.137 266.168C301.057 269.086 295.987 272.021 290.923 274.965C288.829 276.161 288.829 276.161 286.694 277.38C272.354 285.78 261.091 296.342 255.846 312.01C253.092 323.291 253.442 334.666 253.524 346.194C253.508 348.392 253.493 350.591 253.477 352.856C253.519 370.409 253.955 386.938 266.116 400.863C277.4 410.138 289.994 417.173 302.885 424.119C306.627 426.158 310.368 428.197 314.108 430.237C316.793 431.697 316.793 431.697 319.532 433.186C327.868 437.749 336.1 442.476 344.329 447.215C348.856 449.808 348.856 449.808 354.765 451.515C357.469 453.44 360.153 455.391 362.824 457.359C366.31 459.408 369.829 461.405 373.37 463.363C375.458 464.522 377.545 465.681 379.696 466.875C381.941 468.114 384.185 469.354 386.497 470.631C391.278 473.282 396.057 475.936 400.837 478.591C402.048 479.263 403.259 479.935 404.507 480.628C416.086 487.057 427.611 493.572 439.132 500.096C456.535 509.937 474.004 519.661 491.516 529.318C527.37 549.092 563.128 569.024 598.801 589.102C600.77 590.208 602.74 591.315 604.769 592.455C610.095 595.458 615.407 598.482 620.712 601.521C622.295 602.422 623.879 603.323 625.51 604.251C626.955 605.093 628.4 605.935 629.888 606.802C631.14 607.526 632.391 608.251 633.68 608.997C638.399 612.391 640.602 615.94 641.819 621.459C642.607 634.373 642.607 634.373 638.144 640.026C625.738 650.093 612.184 657.901 598.172 665.688C593.522 668.298 588.878 670.916 584.234 673.534C581.942 674.816 579.65 676.099 577.289 677.421C572.554 680.1 567.892 682.865 563.263 685.71C562.109 686.416 560.954 687.122 559.765 687.849C556.594 689.799 553.436 691.77 550.28 693.742C537.479 700.504 525.852 702.826 511.915 698.928C501.434 694.422 491.597 688.909 481.694 683.343C479.885 682.333 478.077 681.322 476.213 680.282C463.846 673.366 451.518 666.387 439.199 659.39C430.886 654.678 422.545 650.013 414.2 645.354C399.952 637.39 385.727 629.388 371.513 621.368C369.476 620.219 367.44 619.07 365.341 617.886C355.132 612.124 344.925 606.36 334.72 600.593C314.111 588.952 293.475 577.36 272.79 565.846C251.42 553.945 230.103 541.957 208.853 529.856C206.427 528.475 204 527.093 201.573 525.711C200.389 525.037 199.204 524.362 197.984 523.667C190.255 519.273 182.49 514.943 174.705 510.644C116.129 478.139 116.129 478.139 106.951 451.515C106.322 449.834 105.693 448.154 105.044 446.423C99.1989 429.804 97.579 414.691 97.381 397.21C97.3262 394.554 97.2688 391.898 97.2088 389.242C97.0457 381.427 96.9572 373.613 96.8773 365.797C96.8468 363.604 96.8162 361.411 96.7848 359.152C96.6178 346.426 96.6316 333.714 96.8773 320.99C96.9153 318.758 96.9153 318.758 96.954 316.482C97.3601 298.447 99.426 281.215 106.951 264.494C108.946 263.53 108.946 263.53 110.981 262.546C111.479 261.22 111.978 259.894 112.492 258.528C127.565 224.277 171.107 206.884 202.352 189.148C212.902 183.157 223.399 177.086 233.88 170.983C247.735 162.923 261.631 154.936 275.56 146.997C291.175 138.095 306.742 129.12 322.277 120.088C344.858 106.96 367.504 93.9391 390.172 80.9497C391.455 80.2138 392.739 79.4778 394.062 78.7196C396.614 77.2565 399.166 75.7941 401.719 74.3322C408.282 70.5687 414.83 66.7817 421.356 62.9585C423.37 61.7814 423.37 61.7814 425.424 60.5806C427.958 59.0974 430.489 57.6099 433.016 56.117C496.924 18.7328 548.464 35.2278 608.623 69.6804Z" fill="#FCFCFC"/>
<path d="M406.25 657.227C408.203 658.203 408.203 658.203 408.203 658.203L406.25 657.227Z" fill="white"/>
<path d="M507.812 625C509.766 625.977 509.766 625.977 509.766 625.977L507.812 625Z" fill="white"/>
<path d="M421.875 534.18C423.828 535.156 423.828 535.156 423.828 535.156L421.875 534.18Z" fill="white"/>
<path d="M667.969 453.125C669.922 454.102 669.922 454.102 669.922 454.102L667.969 453.125Z" fill="white"/>
<path d="M524.414 323.242C526.367 324.219 526.367 324.219 526.367 324.219L524.414 323.242Z" fill="white"/>
</svg>
